<svg width="160" height="200" viewBox="0 0 160 200" fill="none" xmlns="http://www.w3.org/2000/svg">
<path d="M12.7762 92.9347C11.055 93.2565 9.29991 93.3571 7.53002 93.2343C6.4069 93.156 5.2499 93.0035 4.16595 92.6807C3.65573 92.5399 3.05977 92.3155 2.7041 91.9079C5.27637 89.7104 9.18241 91.1564 11.9018 92.5028C12.1897 92.6468 12.4777 92.7908 12.7762 92.9347Z" fill="#C2CAC2"/>
<path d="M159.963 72.8689C160.012 72.5609 159.944 72.2867 159.814 72.0771C159.789 71.8548 159.712 71.6336 159.54 71.425C156.274 67.5243 153.584 63.1493 151.588 58.479C150.579 56.1227 149.781 53.6785 149.119 51.2004C148.503 48.9013 147.939 46.5597 146.827 44.4374C142.807 36.7682 131.87 36.6443 126.769 43.2095C124.577 46.0157 123.525 49.313 122.939 52.73C121.728 53.2032 120.364 53.2339 119.108 52.8602C117.896 52.4971 116.772 51.645 116.08 50.6394C115.95 50.451 115.778 50.3049 115.587 50.2128C113.795 43.6011 112.773 36.7354 111.118 30.111C108.745 20.6814 104.715 10.8422 96.6237 4.91756C88.2548 -1.21567 77.0321 -1.22942 67.7762 2.83434C58.0989 7.08441 51.1369 15.9 47.0107 25.4047C43.0178 34.5897 41.5337 44.4776 40.8224 54.4078C40.7599 54.5042 40.7091 54.6111 40.6679 54.7275C40.6372 54.8122 40.617 54.8873 40.5863 54.9614C40.5758 54.9826 40.5144 55.1425 40.5144 55.1425C40.4329 55.3341 40.3397 55.5256 40.2476 55.7183C40.073 56.0592 39.8877 56.4011 39.6802 56.7218C39.5659 56.8933 39.4526 57.0743 39.3277 57.2458C39.3066 57.2775 39.3066 57.267 39.297 57.2881C39.2864 57.2987 39.2864 57.2987 39.2557 57.3421C39.1933 57.4173 39.1308 57.503 39.0578 57.5888C38.808 57.9 38.537 58.189 38.2448 58.4684C38.1093 58.6081 37.9739 58.7373 37.8267 58.8664C37.7431 58.931 37.67 59.0062 37.5864 59.0707C37.5758 59.0813 37.5028 59.1353 37.4615 59.1787C37.1577 59.4158 36.8327 59.6328 36.5078 59.8382C36.1616 60.0446 35.8155 60.2404 35.4471 60.4151C35.373 60.4479 35.3 60.4807 35.2153 60.5135C35.2047 60.5241 35.0681 60.5792 35.0364 60.5897C34.8469 60.667 34.6468 60.7326 34.4468 60.7993C34.3833 60.8216 34.3208 60.8438 34.2573 60.8766C33.3194 59.0273 32.6112 56.9632 31.4341 55.3605C28.8195 51.8207 24.6012 51.4809 20.6052 52.5988C16.5457 53.7282 12.8672 56.238 10.3225 59.5788C7.28973 63.5516 6.35504 68.3605 5.4521 73.1483C4.28346 79.2953 2.54003 85.3026 0.117018 91.0759C-0.0872817 91.5554 0.0566838 92.0085 0.346726 92.3218C0.379541 92.3959 0.433522 92.4584 0.487508 92.5208C1.49419 94.6972 4.39037 95.1206 6.5424 95.3641C9.52221 95.7007 12.5454 95.4234 15.4236 94.5871C15.5602 94.5427 15.6872 94.4876 15.7814 94.423L15.792 94.4124C15.8343 94.4008 15.8767 94.3796 15.918 94.3468C16.3435 94.5098 16.7701 94.6623 17.2051 94.7935H17.2157C17.238 94.8888 17.2824 94.9724 17.3364 95.0666C19.0714 97.8675 22.1274 99.0616 25.1273 100.023C25.4766 105.057 25.4565 110.096 25.0649 115.12C24.8881 115.344 24.8288 115.642 24.9505 116C25.7148 118.319 26.9533 120.427 28.6734 122.181C29.9956 123.528 31.576 124.489 33.1892 125.428C34.5643 130.362 35.6016 135.375 36.2167 140.458C36.1447 140.607 36.1055 140.799 36.1193 141.01C36.3151 144.236 38.555 146.765 41.3707 148.174C43.3756 149.171 45.5509 149.51 47.7442 149.657C47.7559 149.72 47.7358 149.784 47.758 149.858C48.7043 153.708 49.1966 157.639 49.2442 161.608C49.2495 161.957 49.4231 162.241 49.6803 162.438C50.5145 165.189 53.1566 166.981 55.8262 167.852C59.3258 168.997 63.6203 168.721 66.4647 171.379C67.0225 171.911 67.3803 172.467 67.6121 173.067C67.6153 173.278 67.6703 173.457 67.7677 173.604C68.0377 174.648 68.0006 175.782 68.0821 176.998C68.2017 178.68 68.7236 180.271 69.6339 181.686C70.5115 183.061 71.6293 184.187 72.8826 185.164C72.4952 189.743 72.1183 194.333 71.7309 198.912C71.6409 199.993 73.395 200.444 73.8247 199.432C74.7954 197.088 77.2025 195.92 78.8814 194.149C80.1326 192.828 81.026 190.984 80.8408 189.197C81.7427 187.172 82.9536 185.344 84.5192 183.764C86.1992 182.098 88.1522 181.001 90.1994 179.858C91.8475 178.934 93.5264 177.882 94.5712 176.258C95.9791 174.067 95.4561 171.661 95.1767 169.241C95.1047 168.628 95.0952 168.046 95.1407 167.495C95.1714 167.399 95.1905 167.292 95.1894 167.187L95.1883 167.091C95.8118 162.742 100.03 160.17 104.061 158.554C108.439 156.796 113.638 155.385 115.878 150.789C116.812 148.88 117.183 146.672 117.649 144.527C117.816 144.356 117.907 144.121 117.924 143.835C117.931 143.634 117.94 143.443 117.947 143.242C118.417 141.403 119.059 139.669 120.34 138.252C120.551 138.196 120.75 138.066 120.917 137.863C125.2 132.549 122.07 125.608 122.532 119.556C122.789 116.217 124.513 113.916 127.25 112.129C129.588 110.581 132.131 109.337 134.059 107.255C134.07 107.234 134.09 107.222 134.101 107.201C134.33 107.018 134.485 106.73 134.501 106.358C134.632 103.064 134.763 99.7698 134.905 96.4745C135.02 96.43 135.137 96.3866 135.252 96.3422C139.519 94.9661 144.874 95.5229 147.885 91.5501C148.062 91.3151 148.163 91.0484 148.17 90.7838C148.442 90.5255 148.573 90.1105 148.493 89.6881C148.011 87.2069 147.53 84.7373 147.049 82.2561C147.396 82.1238 147.743 81.9809 148.081 81.8708C152.757 80.301 159.106 78.6623 159.963 72.8689ZM130.92 100.548C131.093 99.413 131.757 98.4815 132.625 97.7702C132.539 99.846 132.453 101.923 132.368 104.009C131.433 103.049 130.717 101.916 130.92 100.548ZM141.322 87.3625C141.311 87.3413 141.301 87.3308 141.289 87.3096V87.299C141.309 87.2461 141.319 87.1932 141.319 87.1286C141.328 87.0333 141.326 86.938 141.336 86.8428C141.336 86.8322 141.336 86.8322 141.336 86.8216C141.457 86.4702 141.717 86.0753 141.819 85.9144C142.585 84.7172 143.716 83.864 144.965 83.1897C145.32 84.9628 145.664 86.7475 146.007 88.5206C144.955 88.2718 143.904 88.0326 142.852 87.7838C142.502 87.7044 141.517 87.6875 141.322 87.3625ZM51.2872 157.907C51.067 155.158 50.6351 152.434 50.0021 149.743C50.7113 149.764 51.411 149.774 52.1097 149.786C53.6351 149.827 55.5277 149.714 56.8954 150.551C58.4229 151.503 57.0012 152.71 56.0157 153.392C54.1717 154.667 52.585 156.163 51.2872 157.907ZM32.9309 105.627C32.9754 105.795 33.041 105.932 33.1278 106.047C32.5816 107.791 30.7577 109.025 29.3657 110.051C28.7168 110.537 28.0891 111.055 27.5038 111.593C27.652 107.992 27.6308 104.391 27.4074 100.785C29.8442 101.659 32.2873 102.968 32.9309 105.627ZM7.53002 93.2343C6.4069 93.156 5.24991 93.0035 4.16596 92.6807C3.65574 92.5399 3.05978 92.3155 2.70411 91.9079C5.27638 89.7104 9.18242 91.1563 11.9018 92.5028C12.1898 92.6468 12.4777 92.7908 12.7762 92.9347C11.056 93.2565 9.29991 93.356 7.53002 93.2343ZM35.9372 127.136C37.5748 128.34 38.8461 129.846 39.0165 132.067C39.1488 133.854 38.6767 135.544 37.9908 137.175C37.4753 133.794 36.7798 130.449 35.9372 127.136ZM76.2795 193.543C75.6105 194.124 74.9203 194.696 74.2619 195.288C74.4937 192.383 74.7372 189.501 74.9912 186.607C76.0593 187.258 77.1697 187.845 78.278 188.41C78.278 188.421 78.2897 188.442 78.3003 188.453C78.4093 188.631 78.4855 188.82 78.5416 189C78.4823 189.287 78.5395 189.55 78.6697 189.781C78.6485 191.254 77.3455 192.638 76.2795 193.543Z" fill="#FFFDFE"/>
<path d="M85.0442 2.11665C91.5998 4.36606 96.232 10.0685 98.9832 16.2303C102.366 23.8073 103.007 32.2863 104.151 40.4022C105.194 47.7909 106.669 55.3468 110.54 61.8378C112.406 64.9647 114.822 67.8567 117.885 69.869C120.374 71.5034 124.209 72.8901 125.86 69.4276C126.644 67.7815 126.739 65.7809 126.927 63.9951C127.166 61.715 127.272 59.4243 127.396 57.1368C127.643 52.53 128.003 47.9221 129.629 43.563C130.046 42.4452 128.182 41.719 127.673 42.8009C125.922 46.5153 124.43 50.3409 123.183 54.2522C121.076 54.2395 118.821 54.0395 117.112 52.7258C115.454 51.4524 114.704 49.3586 114.12 47.432C112.596 42.3901 111.276 37.2805 109.845 32.2111C108.498 27.4435 107.051 22.6683 104.789 18.2426C102.651 14.0581 99.794 10.2653 96.4289 6.9902C96.1103 6.68004 95.743 6.64935 95.4201 6.75944C92.7356 3.77645 89.4372 1.39472 85.5513 0.0620053C84.2641 -0.380468 83.7623 1.67629 85.0442 2.11665Z" fill="#E5E5E5"/>
<path d="M155.411 68.6665C154.081 67.1072 153.305 65.0992 152.521 63.2308C150.674 58.823 148.981 54.3517 147.422 49.8338C147.227 49.2654 146.721 49.0749 146.253 49.132C145.703 45.8505 144.866 42.5574 142.512 40.0814C141.572 39.0928 140.099 40.6139 141.037 41.6005C143.716 44.4173 144.166 48.8441 144.629 52.5257C145.172 56.8531 145.323 61.2302 145.072 65.584C144.97 67.3613 144.919 69.2264 144.367 70.9349C144.145 71.624 143.819 72.3682 143.258 72.8562C142.729 73.3167 142.087 73.34 141.461 73.5792C141.364 70.2532 141.145 66.9305 140.781 63.6225C140.415 60.2934 139.984 57.0066 138.56 53.941C137.902 52.5226 136.084 53.2371 135.649 54.3655C134.333 57.7751 133.867 61.3868 133.38 64.987C133.28 65.7227 133.181 66.4583 133.081 67.194C132.886 67.4333 132.754 67.7413 132.727 68.1171C132.422 72.3079 131.634 76.4542 130.387 80.4672C129.761 82.4837 129.02 84.4611 128.156 86.3876C127.481 87.8918 126.773 89.4796 125.645 90.7054C125.308 91.0717 124.88 91.3437 124.434 91.5957C124.672 86.7052 124.783 81.8009 124.267 76.9644C124.053 74.9553 121.144 74.9362 121.091 77.011C120.841 86.9645 120.241 96.9043 119.316 106.817C119.278 106.357 119.241 105.899 119.199 105.44C118.887 101.95 118.575 98.4593 118.263 94.9692C118.146 93.663 116.937 93.2142 116.044 93.5921C115.208 93.609 114.317 94.2876 114.332 95.2095C114.454 102.436 114.576 109.663 114.696 116.891C114.732 119.046 114.768 121.202 114.805 123.357C114.504 124.832 114.107 126.292 113.566 127.729C112.762 129.866 111.523 132.233 109.378 133.279C107.459 134.215 105.247 133.764 103.459 132.747C99.0531 130.24 97.9247 124.721 97.0133 120.147C95.6795 113.453 94.6072 106.703 94.369 99.8724C94.3352 98.8933 93.5868 98.3979 92.8257 98.3682C92.1451 97.1403 89.8385 97.423 89.8448 99.1706C89.8914 111.667 89.938 124.163 89.9846 136.659C90.0184 145.777 90.3296 155.042 89.7432 164.196C89.0816 164.367 88.3703 164.37 87.7711 164.185C86.1198 163.673 84.9268 162.162 84.2684 160.622C83.3316 158.436 83.2977 155.956 83.2151 153.62C83.1273 151.161 83.0458 148.702 82.9611 146.243C82.6097 136.056 82.2582 125.867 81.9068 115.68C81.8803 114.902 81.4018 114.427 80.8249 114.251C80.0501 113.383 78.0992 113.764 77.9605 115.337C76.5844 130.992 75.7228 146.688 75.365 162.398C74.1709 161.187 73.9962 157.859 73.8301 156.776C73.3569 153.679 72.9589 150.572 72.6254 147.457C71.967 141.3 71.5785 135.117 71.4409 128.926C71.4325 128.532 71.3054 128.216 71.1085 127.977C71.1085 127.974 71.1085 127.969 71.1085 127.966C71.0916 126.224 68.2134 125.775 67.9795 127.61L66.5007 139.153C64.9383 137.523 64.9266 134.339 64.7414 132.313C64.4164 128.754 64.1232 125.193 63.8607 121.629C63.3293 114.414 62.9291 107.19 62.6518 99.9614C62.5735 97.9194 59.3978 97.9607 59.4762 100.008C59.6275 103.945 59.8159 107.88 60.0414 111.814C59.4751 111.991 59.0273 112.477 59.057 113.286C59.2772 119.236 59.0475 125.187 58.6283 131.123C58.4028 134.313 58.2228 137.541 57.9084 140.747C57.0669 140.466 56.0634 140.366 55.3224 140.045C51.5095 138.391 48.7679 134.753 47.3886 130.92C45.6473 126.083 45.5764 120.886 45.4049 115.808C45.2228 110.448 44.9063 105.095 44.5094 99.7475C44.2881 96.755 44.0552 93.7614 43.7821 90.7732C43.5291 87.9966 43.1682 85.2285 42.1403 82.6192C41.9265 82.0772 41.429 81.8877 40.9685 81.9322C40.5292 81.4103 39.6358 81.5045 39.2346 82.11C38.7562 82.832 38.049 83.9477 37.1609 84.225C36.1119 84.5532 35.3667 83.7169 34.7982 82.96C33.5629 81.314 32.7447 79.3419 32.0005 77.4397C30.3608 73.2468 28.791 69.0243 27.1883 64.8165C26.9946 64.3095 26.5522 64.1052 26.1203 64.1136C25.5021 63.8448 24.6574 64.1899 24.5991 64.8885C24.1884 65.0875 23.8836 65.5035 24.0233 66.073C26.7184 77.0025 29.1964 87.9828 31.4755 99.0065C29.7892 97.7479 28.2257 96.3443 27.1714 94.4791C25.826 92.1006 25.2967 89.3568 24.7971 86.6999C23.6052 80.3624 22.4418 74.0185 21.2647 67.6778C21.1313 66.9601 20.4909 66.8034 19.9585 67.0056C19.5086 66.579 18.6766 66.4912 18.2457 67.1813C16.8368 69.4403 15.7931 71.9289 15.2469 74.5393C14.725 77.0311 14.8055 80.0755 12.9234 82.0253C11.1196 83.8937 8.48276 84.0948 6.15396 84.8707C4.05168 85.5704 2.05631 87.191 2.28073 89.6215C2.32836 90.138 2.60994 90.462 3.08522 90.6334C5.9486 91.6666 8.81196 92.7018 11.6764 93.7329C14.1587 94.6263 16.6325 95.4371 19.2704 95.6245C23.0664 98.6985 27.5959 100.46 32.1476 102.112C32.1582 102.145 32.1805 102.163 32.1932 102.193C32.2503 102.895 32.3117 103.596 32.3646 104.299C31.846 106.182 31.1325 107.996 30.1777 109.714C29.569 110.809 28.8831 111.864 28.1093 112.849C27.634 113.455 27.0349 114.026 26.7903 114.761C26.2579 115.017 25.9064 115.678 26.2939 116.243C29.0027 120.193 32.3752 123.551 36.3268 126.257C36.4718 126.356 36.6168 126.398 36.7597 126.411C36.8105 126.566 36.8677 126.715 36.9122 126.874C37.0043 127.203 37.2329 127.406 37.5018 127.516C38.8631 133.521 35.8917 140.539 40.3471 145.734C44.413 150.476 51.0681 148.306 56.3047 150.195C55.4357 153.103 54.049 155.77 51.6387 157.827C51.2587 158.152 50.9665 158.497 50.7273 158.852C50.1885 159.117 49.7915 159.673 49.8211 160.296C49.964 163.306 52.5331 165.457 55.1488 166.516C57.2701 167.375 59.5566 167.686 61.8018 167.388C64.7424 169.087 67.14 171.665 68.4558 174.877C68.7152 175.511 69.2751 175.862 69.8499 175.945C70.1728 177.941 70.7656 179.889 71.8019 181.747C73.0584 184.001 74.9553 185.997 77.3391 187.053C78.3935 187.52 79.7008 187.856 80.7498 187.168C81.7935 186.483 81.8634 185.43 81.7406 184.36L85.7811 181.174C86.3686 180.711 86.9698 180.254 87.5689 179.795C88.7513 179.312 89.7972 178.696 90.5678 177.701C91.9238 177.038 92.976 175.888 93.5868 174.391C94.64 171.806 94.0218 169.006 93.3581 166.406C93.3042 166.196 93.2131 166.018 93.0956 165.869C93.4365 165.566 93.7434 165.219 94.0155 164.836C94.1065 164.768 94.1955 164.69 94.2791 164.594C97.4992 160.861 101.564 158.044 106.223 156.414C108.589 155.586 110.924 154.759 112.682 152.882C114.271 151.187 115.268 149.049 115.992 146.865C116.779 144.493 117.25 142.04 117.543 139.558C117.804 139.265 118.082 138.983 118.323 138.678C120.202 136.302 121.128 133.617 121.219 130.591C121.315 127.353 120.567 124.123 121.037 120.892C121.352 118.73 122.002 116.643 122.555 114.533C122.568 114.525 122.583 114.523 122.594 114.514L131.176 108.247C131.979 107.66 132.295 106.498 131.477 105.738C128.903 103.347 129.677 100.099 130.186 96.9911C130.223 96.7645 130.267 96.5401 130.305 96.3136C130.535 96.3634 130.785 96.3687 131.05 96.2977C135.723 95.0412 140.34 93.59 144.891 91.945C146.02 91.5374 146.459 90.1772 145.572 89.2753C144.645 88.3332 143.402 88.1691 142.397 87.3996C141.638 86.8174 141.448 85.8223 141.392 84.8845C141.716 84.8538 142.04 84.6886 142.252 84.3795C144.397 81.2695 148.502 80.5084 151.755 79.0783C154.341 77.9415 158.351 75.5322 158.262 72.2105C158.216 70.4607 156.415 69.8425 155.411 68.6665Z" fill="#E5E5E5"/>
<path d="M78.6688 189.781C78.6476 191.254 77.3456 192.638 76.2786 193.543C75.6096 194.124 74.9194 194.696 74.261 195.288C74.4928 192.383 74.7363 189.501 74.9903 186.607C76.0584 187.258 77.1688 187.845 78.2771 188.41C78.2771 188.421 78.2887 188.442 78.2993 188.453C78.4084 188.631 78.4846 188.82 78.5407 189C78.4814 189.287 78.5386 189.55 78.6688 189.781Z" fill="#C2CAC2"/>
<path d="M33.1269 106.047C32.5807 107.791 30.7568 109.025 29.3648 110.051C28.7159 110.537 28.0882 111.055 27.5028 111.593C27.651 107.992 27.6298 104.391 27.4065 100.785C29.8433 101.659 32.2875 102.968 32.93 105.626C32.9755 105.795 33.0411 105.932 33.1269 106.047Z" fill="#C2CAC2"/>
<path d="M146.008 88.5206C144.956 88.2718 143.905 88.0326 142.853 87.7838C142.502 87.7044 141.517 87.6875 141.322 87.3615C141.312 87.3403 141.301 87.3297 141.289 87.3085V87.298C141.309 87.245 141.319 87.1921 141.319 87.1275C141.328 87.0322 141.326 86.937 141.336 86.8417C141.336 86.8311 141.336 86.8311 141.336 86.8205C141.458 86.4691 141.717 86.0743 141.82 85.9134C142.585 84.7162 143.717 83.863 144.966 83.1887C145.32 84.9639 145.664 86.7475 146.008 88.5206Z" fill="#C2CAC2"/>
<path d="M132.625 97.7702C132.539 99.846 132.453 101.923 132.368 104.009C131.433 103.049 130.717 101.916 130.92 100.548C131.093 99.413 131.757 98.4815 132.625 97.7702Z" fill="#C2CAC2"/>
<path d="M39.0166 132.067C39.1489 133.854 38.6768 135.544 37.9908 137.175C37.4753 133.795 36.7799 130.449 35.9373 127.137C37.5748 128.34 38.8461 129.846 39.0166 132.067Z" fill="#C2CAC2"/>
<path d="M56.0158 153.392C54.1718 154.668 52.584 156.163 51.2873 157.907C51.0671 155.158 50.6352 152.434 50.0022 149.743C50.7114 149.764 51.4111 149.774 52.1098 149.786C53.6351 149.827 55.5278 149.714 56.8955 150.551C58.4229 151.503 57.0013 152.71 56.0158 153.392Z" fill="#C2CAC2"/>
<path d="M118.822 64.2026C112.619 53.5589 111.769 41.1538 108.665 29.4907C106.278 20.5269 102.198 10.964 94.0335 5.82368C85.3672 0.382748 73.992 1.46141 65.4178 6.54244C56.7176 11.6997 50.848 20.7217 47.5358 30.1078C43.5831 41.2924 42.9448 53.2752 42.4833 65.0229C42.4304 66.453 40.1968 66.4858 40.2604 65.0557C40.3376 63.1281 40.4149 61.1995 40.5239 59.2613C40.5949 57.6406 40.6986 56.0295 40.8225 54.4078C41.5338 44.4776 43.0179 34.5886 47.0107 25.4047C51.1369 15.9 58.1001 7.08441 67.7762 2.83435C77.0322 -1.23048 88.2549 -1.21566 96.6238 4.91756C104.714 10.8433 108.745 20.6825 111.118 30.111C112.773 36.7354 113.796 43.6011 115.587 50.2128C115.956 51.5625 116.357 52.9015 116.8 54.2279C117.819 57.2723 119.09 60.2394 120.742 63.0731C121.459 64.3116 119.55 65.4411 118.822 64.2026Z" fill="#494949"/>
<path d="M125.057 53.4498C125.057 53.4498 125.047 53.4604 125.057 53.471C125.059 53.6086 125.04 53.7568 124.979 53.8849C124.908 54.1294 124.752 54.3327 124.522 54.4523C123.901 54.7582 123.259 54.9794 122.594 55.1266C121.275 55.4314 119.899 55.4103 118.58 55.0165C117.952 54.8249 117.356 54.5687 116.801 54.2279C115.764 53.6287 114.864 52.7851 114.16 51.7689C113.813 51.2766 114.068 50.5314 114.55 50.2488C114.886 50.0424 115.267 50.0583 115.588 50.2117C115.779 50.3038 115.951 50.4499 116.081 50.6383C116.773 51.644 117.897 52.4961 119.109 52.8592C120.364 53.2328 121.729 53.2021 122.94 52.729C123.098 52.6739 123.245 52.6083 123.392 52.5321C123.928 52.2706 124.586 52.3765 124.912 52.9227C125.01 53.0698 125.055 53.2699 125.057 53.4498Z" fill="#494949"/>
<path d="M159.814 72.0771C159.891 73.0182 158.739 73.9031 157.996 73.0139C157.91 72.9091 157.813 72.7948 157.726 72.69C154.59 68.9036 151.956 64.7509 149.952 60.2489C148.156 56.2105 147.257 51.9785 145.851 47.8067C144.535 43.9409 141.857 41.1326 137.669 40.6859C133.714 40.2677 130.089 42.1107 127.914 45.4038C126.299 47.8417 125.503 50.6055 125.058 53.4498C125.058 53.4498 125.048 53.4604 125.058 53.471C125.029 53.6086 125.01 53.7473 124.98 53.8849C124.721 55.6675 124.578 57.4691 124.435 59.239C124.329 60.6596 122.106 60.703 122.212 59.2719C122.319 57.9042 122.436 56.5165 122.595 55.1266C122.689 54.321 122.805 53.525 122.941 52.729C123.526 49.3109 124.578 46.0146 126.771 43.2084C131.872 36.6433 142.81 36.7682 146.829 44.4363C147.941 46.5587 148.504 48.9002 149.121 51.1994C149.783 53.6774 150.581 56.1216 151.59 58.4779C153.585 63.1493 156.276 67.5243 159.542 71.424C159.711 71.6336 159.788 71.8548 159.814 72.0771Z" fill="#494949"/>
<path d="M159.963 72.8689C160.012 72.5609 159.944 72.2867 159.814 72.0771C159.315 71.3118 157.97 71.226 157.806 72.329C157.787 72.4561 157.767 72.5736 157.726 72.69C157.163 75.3872 154.774 77.1063 152.322 78.1055C149.471 79.2805 146.387 79.8235 143.679 81.3563C142.975 81.7586 142.201 82.2889 141.48 82.9135C140.257 83.99 139.208 85.3608 139.103 86.8766C139.096 87.0672 139.098 87.2577 139.112 87.4588C139.112 87.4694 139.112 87.48 139.112 87.48L139.113 87.5224C139.274 89.1292 140.615 89.5537 141.974 89.8723C143.206 90.1507 144.438 90.4397 145.66 90.7181C146.16 90.8377 146.658 90.9468 147.158 91.0664C147.573 91.1659 147.931 91.0336 148.17 90.7869C148.442 90.5286 148.573 90.1137 148.493 89.6913C148.011 87.2101 147.53 84.7405 147.049 82.2593C147.396 82.1269 147.743 81.984 148.081 81.874C152.758 80.301 159.106 78.6623 159.963 72.8689ZM142.853 87.7838C142.502 87.7044 141.517 87.6875 141.322 87.3615C141.311 87.3403 141.301 87.3297 141.289 87.3085V87.298C141.245 87.1826 141.274 87.0227 141.336 86.8417C141.336 86.8311 141.336 86.8311 141.336 86.8205C141.458 86.4691 141.717 86.0743 141.82 85.9134C142.585 84.7162 143.716 83.863 144.966 83.1887C145.32 84.9617 145.664 86.7464 146.007 88.5195C144.956 88.2718 143.905 88.0336 142.853 87.7838Z" fill="#494949"/>
<path d="M139.825 58.0715C139.783 57.4914 139.32 56.9399 138.697 56.9759C138.124 57.0087 137.557 57.484 137.601 58.1043C137.737 59.9779 137.872 61.8526 138.008 63.7262C138.049 64.3063 138.512 64.8578 139.136 64.8218C139.709 64.789 140.276 64.3137 140.232 63.6934C140.096 61.8187 139.961 59.9451 139.825 58.0715Z" fill="#494949"/>
<path d="M141.479 82.9135C141.455 84.2155 141.411 85.5185 141.335 86.8216C141.335 86.8322 141.335 86.8322 141.335 86.8428C141.325 86.938 141.327 87.0333 141.318 87.1286C141.319 87.1921 141.309 87.245 141.288 87.299V87.3096C141.062 88.4454 139.337 88.5237 139.11 87.479C139.11 87.479 139.11 87.4684 139.11 87.4578C139.087 87.3731 139.075 87.2683 139.084 87.1614C139.094 87.0661 139.092 86.9709 139.101 86.8756C139.473 80.4544 139.25 74.0322 138.458 67.6598C138.278 66.2329 140.501 66.2212 140.681 67.627C141.317 72.6995 141.584 77.8091 141.479 82.9135Z" fill="#494949"/>
<path d="M147.861 89.9761C147.474 89.6003 146.658 89.5283 146.294 89.9994C146.097 90.2566 145.888 90.5032 145.659 90.7181C142.195 94.1679 136.076 92.7336 132.082 95.3969H132.071C130.299 96.5772 128.814 98.4942 128.676 100.677V100.688C128.657 100.857 128.66 101.016 128.663 101.185C128.737 103.365 130.149 105.038 131.725 106.423C132.015 106.683 132.315 106.933 132.614 107.172C133.085 107.557 133.699 107.527 134.097 107.203C134.327 107.02 134.482 106.732 134.497 106.36C134.629 103.066 134.76 99.7719 134.902 96.4766C135.017 96.4322 135.134 96.3888 135.249 96.3443C139.516 94.9682 144.871 95.525 147.882 91.5523C148.059 91.3173 148.16 91.0505 148.166 90.7859C148.196 90.5001 148.097 90.2153 147.861 89.9761ZM130.92 100.548C131.093 99.413 131.757 98.4815 132.625 97.7702C132.539 99.846 132.453 101.923 132.368 104.009C131.433 103.049 130.717 101.916 130.92 100.548Z" fill="#494949"/>
<path d="M134.147 69.9124C132.992 80.0903 131.162 90.1772 128.666 100.112C128.318 101.499 130.476 102.036 130.825 100.644C133.322 90.7097 135.152 80.6228 136.307 70.4438C136.466 69.0433 134.309 68.4907 134.147 69.9124Z" fill="#494949"/>
<path d="M134.098 107.203C134.088 107.224 134.067 107.235 134.057 107.257C132.129 109.339 129.586 110.584 127.247 112.131C124.511 113.918 122.787 116.221 122.53 119.558C122.068 125.61 125.198 132.551 120.915 137.865C120.749 138.068 120.55 138.198 120.338 138.254C119.422 138.533 118.307 137.585 119.034 136.686C119.17 136.514 119.294 136.343 119.418 136.172C123.026 130.952 119.511 123.785 120.525 117.905C120.544 117.746 120.573 117.597 120.603 117.438C120.969 115.739 121.742 114.298 122.804 113.065C123.584 112.122 124.535 111.304 125.594 110.579C127.638 109.172 129.887 108.08 131.726 106.423C132.009 106.175 132.29 105.906 132.551 105.616C133.509 104.574 134.972 106.152 134.098 107.203Z" fill="#494949"/>
<path d="M121.595 85.7916C121.202 96.3231 120.81 106.855 120.418 117.386C120.365 118.819 122.588 118.781 122.642 117.353C123.034 106.822 123.426 96.2903 123.819 85.7588C123.872 84.3255 121.648 84.3637 121.595 85.7916Z" fill="#494949"/>
<path d="M122.911 75.1702C122.299 75.2051 121.818 75.6772 121.815 76.2986L121.797 79.4774C121.794 80.0596 122.334 80.6069 122.926 80.573C123.537 80.5381 124.018 80.0659 124.021 79.4446L124.039 76.2658C124.042 75.6825 123.501 75.1363 122.911 75.1702Z" fill="#494949"/>
<path d="M42.8262 55.2568C42.3085 56.7356 41.5231 58.0926 40.5249 59.2613C39.1826 60.8374 37.4434 62.0696 35.4534 62.7979C35.3168 62.8529 35.1792 62.8974 35.0427 62.9418C34.4531 63.1408 33.8539 62.7269 33.6761 62.168C33.5099 61.662 33.8095 61.1285 34.2604 60.8787C34.3239 60.8459 34.3864 60.8237 34.4499 60.8014C34.6499 60.7348 34.85 60.6681 35.0395 60.5919C35.0712 60.5813 35.2078 60.5262 35.2184 60.5156C35.3031 60.4828 35.3761 60.45 35.4502 60.4172C35.8186 60.2425 36.1647 60.0467 36.5109 59.8403C36.8358 59.6339 37.1608 59.4179 37.4646 59.1808C37.5059 59.1385 37.58 59.0834 37.5895 59.0728C37.6732 59.0083 37.7462 58.9331 37.8298 58.8685C37.9759 58.7394 38.1125 58.6103 38.248 58.4705C38.5401 58.1911 38.8111 57.901 39.0609 57.5909C39.134 57.5051 39.1964 57.4194 39.2589 57.3442C39.2896 57.3019 39.2896 57.3019 39.3001 57.2902C39.3107 57.2691 39.3107 57.2797 39.3308 57.2479C39.4557 57.0764 39.569 56.8954 39.6833 56.7239C39.8908 56.4032 40.0761 56.0613 40.2507 55.7204C40.3428 55.5288 40.436 55.3362 40.5175 55.1446C40.5175 55.1446 40.5789 54.9847 40.5895 54.9636C40.6202 54.8895 40.6403 54.8143 40.671 54.7296C40.7112 54.6121 40.7631 54.5063 40.8255 54.4099C41.0849 54.0246 41.5051 53.8182 42.0143 53.9156C42.5647 54.0225 43.0188 54.7148 42.8262 55.2568Z" fill="#494949"/>
<path d="M36.2262 66.4605C32.8176 64.319 32.029 60.3717 29.9913 57.1728C27.4984 53.2709 22.7329 53.8711 18.9676 55.5257C15.2754 57.1579 12.1739 60.0509 10.3754 63.6669C8.18525 68.061 7.83805 73.179 6.73186 77.8959C5.84586 81.6781 4.6931 85.4 3.30746 89.0308C3.02271 89.8078 2.71573 90.5742 2.39923 91.3416C2.29761 91.6073 2.1854 91.8846 2.07214 92.1514C1.74505 92.9294 0.939488 92.867 0.446205 92.4298C0.414448 92.398 0.371052 92.3673 0.349882 92.325C0.0598396 92.0117 -0.0851845 91.5586 0.120174 91.0791C2.54425 85.3058 4.28662 79.2985 5.45525 73.1515C6.35819 68.3637 7.29289 63.5537 10.3256 59.582C12.8704 56.2412 16.5488 53.7304 20.6084 52.6019C24.6044 51.4841 28.8227 51.8239 31.4373 55.3637C32.6144 56.9663 33.3226 59.0305 34.2604 60.8798C34.6203 61.5625 35.0004 62.2136 35.4534 62.8C35.9605 63.47 36.5522 64.0544 37.2889 64.5191C38.5063 65.2728 37.434 67.2258 36.2262 66.4605Z" fill="#494949"/>
<path d="M23.1902 94.8549C22.2534 95.1863 21.3229 95.3165 20.402 95.309C19.3223 95.3143 18.2605 95.1185 17.2189 94.7946H17.2083C16.7722 94.6633 16.3467 94.5109 15.9211 94.3479C15.9106 94.3479 15.9 94.3373 15.8894 94.3373C15.3675 94.133 14.8562 93.9181 14.3439 93.6725C13.822 93.4365 13.2991 93.1898 12.7878 92.9337C12.7878 92.9337 12.7878 92.9337 12.7773 92.9337C12.4787 92.7897 12.1908 92.6457 11.9029 92.5018C9.18349 91.1553 5.27639 89.7093 2.70518 91.9069C2.47441 92.09 2.25635 92.3049 2.04782 92.5621C1.55877 93.1623 0.87918 92.9813 0.490693 92.5219C0.436707 92.4594 0.382726 92.397 0.349911 92.3229C0.132908 91.945 0.0937371 91.4369 0.447292 91.0082C1.23803 90.0438 2.22354 89.4045 3.30855 89.0287C5.4881 88.2559 8.07625 88.5354 10.2367 89.3388C13.8347 90.6832 17.5947 93.6662 21.5854 92.9294C20.0399 85.7853 19.0544 78.5268 18.6818 71.2271C18.6077 69.7885 20.8307 69.7663 20.9048 71.1943C21.2806 78.6941 22.301 86.1537 23.965 93.4873C24.1111 94.1012 23.7798 94.6453 23.1902 94.8549Z" fill="#494949"/>
<path d="M15.8883 94.3384C15.8566 94.3606 15.8259 94.3923 15.7941 94.4135L15.7835 94.4241C15.6893 94.4887 15.5633 94.5437 15.4257 94.5882C12.5475 95.4244 9.52433 95.7018 6.54452 95.3652C4.39143 95.1217 1.49524 94.6983 0.489624 92.5219C0.468453 92.4901 0.456808 92.4584 0.446223 92.4277C0.380593 92.3017 0.336138 92.1641 0.291679 92.017C-0.10951 90.6779 1.92501 90.0766 2.39924 91.3406C2.40983 91.3617 2.42147 91.3935 2.43206 91.4242C2.48816 91.6031 2.58555 91.7714 2.70411 91.9069C3.05978 92.3144 3.65574 92.5388 4.16596 92.6796C5.25097 93.0025 6.4069 93.1549 7.53002 93.2332C9.29991 93.355 11.056 93.2555 12.7762 92.9337C12.7868 92.9337 12.7868 92.9337 12.7868 92.9337C13.441 92.8077 14.0846 92.6606 14.7281 92.4817C14.7599 92.4711 14.8022 92.4594 14.834 92.4478C16.0249 92.0921 16.6304 93.6503 15.8883 94.3384Z" fill="#494949"/>
<path d="M15.92 94.3489C15.8787 94.3818 15.8363 94.4029 15.794 94.4146L15.7834 94.4252C15.668 94.4696 15.541 94.4919 15.3928 94.494C14.7894 94.5024 14.4348 94.1161 14.3427 93.6736C14.2305 93.2417 14.3607 92.7421 14.727 92.4827C14.8837 92.3536 15.1049 92.2763 15.3589 92.2721C16.5879 92.253 16.7816 93.8811 15.92 94.3489Z" fill="#494949"/>
<path d="M34.0647 106.404C33.7058 106.451 33.3544 106.34 33.1279 106.047C33.0411 105.932 32.9755 105.795 32.931 105.627C32.2885 102.969 29.8443 101.66 27.4075 100.786C26.8009 100.562 26.205 100.37 25.6312 100.188C25.4608 100.137 25.301 100.087 25.1316 100.026C22.1317 99.0648 19.0757 97.8707 17.3407 95.0698C17.2867 94.9756 17.2423 94.8909 17.22 94.7967H17.2094C16.8654 93.7011 18.557 92.8289 19.2609 93.9509C19.5859 94.4749 19.9744 94.9248 20.4031 95.3101C22.4313 97.1541 25.4778 97.7331 27.9897 98.6286C29.6177 99.2077 31.2712 100.009 32.5891 101.133C33.5534 101.945 34.3304 102.939 34.793 104.15C34.9031 104.435 34.992 104.729 35.0703 105.035C35.2619 105.803 34.6776 106.341 34.0647 106.404Z" fill="#494949"/>
<path d="M27.0317 67.8641C26.7629 66.9188 26.494 65.9735 26.2262 65.0272C26.0674 64.4672 25.4302 64.0671 24.8564 64.2534C24.2859 64.4386 23.9133 65.0251 24.0826 65.6232C24.3515 66.5684 24.6193 67.5137 24.8882 68.4601C25.047 69.02 25.6842 69.4202 26.2579 69.2339C26.8285 69.0476 27.2011 68.4622 27.0317 67.8641Z" fill="#494949"/>
<path d="M28.2364 72.5016C27.8617 71.117 25.7202 71.7151 26.0939 73.0975C28.9954 83.8386 31.4459 94.6961 33.437 105.644C33.6932 107.055 35.8346 106.445 35.5795 105.048C33.5884 94.1002 31.1389 83.2427 28.2364 72.5016Z" fill="#494949"/>
<path d="M35.517 105.165C35.499 105.409 35.4704 105.632 35.4323 105.854V105.865C35.0502 107.987 33.582 109.597 31.8862 110.935C30.1904 112.263 27.9113 113.493 27.2349 115.683C27.2349 115.694 27.2244 115.715 27.2148 115.725C26.8285 116.831 24.9326 116.733 25.0406 115.439C25.049 115.334 25.0586 115.228 25.0681 115.122C25.4598 110.098 25.4809 105.058 25.1305 100.025C25.1157 99.7602 25.0914 99.4967 25.0766 99.232C24.9707 97.8041 27.1937 97.7818 27.2995 99.1992C27.3387 99.7274 27.3789 100.257 27.4075 100.786C27.6298 104.392 27.652 107.992 27.5038 111.594C28.0892 111.056 28.7158 110.538 29.3658 110.053C30.7588 109.026 32.5827 107.793 33.1279 106.048C33.2189 105.772 33.2676 105.495 33.2845 105.199C33.2941 105.125 33.3036 105.051 33.3131 104.987V104.977C33.4931 104.286 34.2203 104.01 34.793 104.15C35.2185 104.259 35.5509 104.593 35.517 105.165Z" fill="#494949"/>
<path d="M39.078 126.91C38.8631 126.67 38.626 126.429 38.3793 126.211C36.492 124.545 34.1272 123.585 32.0736 122.154C29.8168 120.578 28.1315 118.317 27.2148 115.725C27.1714 115.62 27.127 115.515 27.0931 115.399C26.7607 114.408 25.5021 114.47 25.0671 115.122C24.8903 115.346 24.831 115.644 24.9527 116.003C25.717 118.321 26.9555 120.429 28.6756 122.183C29.9978 123.53 31.5782 124.491 33.1914 125.43C34.5665 130.364 35.6038 135.377 36.2189 140.46C36.2421 140.619 36.2548 140.766 36.2781 140.925C36.3988 141.95 37.8046 142.512 38.3709 141.445C38.3815 141.424 38.392 141.413 38.4016 141.392C39.7713 138.789 41.1284 136.079 41.2533 133.081L41.2512 132.954C41.2618 132.954 41.2618 132.944 41.2512 132.933C41.3147 130.677 40.5631 128.561 39.078 126.91ZM37.9909 137.174C37.4753 133.794 36.7799 130.448 35.9373 127.136C37.5748 128.34 38.8462 129.846 39.0166 132.067C39.1489 133.854 38.6768 135.544 37.9909 137.174Z" fill="#494949"/>
<path d="M59.7238 150.722C59.4772 149.825 58.8537 149.168 58.0852 148.693C57.6575 148.424 57.1886 148.218 56.7101 148.067C54.9974 147.51 53.0613 147.581 51.2819 147.555C49.2802 147.51 47.2478 147.529 45.263 147.146C42.2895 146.554 38.8535 144.657 38.4025 141.393C38.3687 141.255 38.356 141.119 38.3433 140.981C38.2618 139.765 36.6401 139.599 36.2188 140.462C36.1468 140.612 36.1076 140.803 36.1214 141.014C36.3172 144.24 38.5571 146.769 41.3728 148.178C43.3777 149.175 45.553 149.514 47.7464 149.661C47.758 149.725 47.7379 149.788 47.7601 149.862C48.7065 153.712 49.1987 157.644 49.2463 161.612C49.2516 161.962 49.4252 162.245 49.6824 162.442C50.1969 162.837 51.0226 162.835 51.3401 162.132C51.4523 161.876 51.5762 161.621 51.7096 161.365C52.3881 159.999 53.2593 158.737 54.322 157.62C55.532 156.364 57.033 155.548 58.3403 154.407C58.9574 153.868 59.4549 153.194 59.6772 152.449C59.6878 152.449 59.6878 152.439 59.6878 152.439C59.8582 151.895 59.8921 151.322 59.7238 150.722ZM56.0157 153.392C54.1717 154.668 52.5839 156.163 51.2872 157.907C51.067 155.158 50.6351 152.434 50.0021 149.743C50.7113 149.764 51.411 149.774 52.1097 149.786C53.635 149.827 55.5277 149.714 56.8954 150.551C58.4228 151.503 57.0012 152.71 56.0157 153.392Z" fill="#494949"/>
<path d="M79.9918 188.312C79.9918 188.323 79.9918 188.323 79.9812 188.323C79.6795 188.666 79.2053 188.853 78.6835 188.617C78.6623 188.617 78.6517 188.606 78.6305 188.597C78.513 188.535 78.3955 188.473 78.278 188.411C77.1687 187.845 76.0593 187.259 74.9912 186.608C74.2545 186.163 73.5484 185.687 72.8847 185.167C71.6314 184.19 70.5136 183.064 69.636 181.69C68.7257 180.274 68.2049 178.683 68.0842 177.001C68.0027 175.785 68.0387 174.651 67.7698 173.608C67.7349 173.429 67.6798 173.238 67.6142 173.07C67.3835 172.47 67.0257 171.914 66.4668 171.383C63.6224 168.725 59.3279 169 55.8283 167.856C53.1587 166.984 50.5166 165.192 49.6824 162.441C49.5829 162.146 49.5141 161.829 49.4675 161.502C49.2675 160.108 51.4068 159.494 51.6079 160.909C51.6312 161.068 51.6545 161.215 51.7095 161.363C52.4908 164.792 56.3703 165.857 59.4602 166.436C62.3374 166.997 65.405 167.544 67.6777 169.491C67.8916 169.668 68.0959 169.855 68.2896 170.065C68.9882 170.785 69.509 171.603 69.8287 172.519C69.9938 172.941 70.0955 173.373 70.1653 173.827C70.4712 175.897 70.1187 177.872 71.1117 179.815C72.583 182.673 75.3829 184.4 78.1775 185.851C78.6686 186.119 79.1587 186.365 79.6499 186.613C79.6711 186.624 79.6817 186.633 79.7028 186.644C80.0553 186.829 80.2289 187.113 80.2649 187.408C80.3115 187.724 80.1898 188.055 79.9918 188.312Z" fill="#494949"/>
<path d="M40.7727 81.9078C40.1714 81.9428 39.6686 82.4149 39.6771 83.0362L39.7385 87.1699C39.747 87.7521 40.2667 88.2993 40.8669 88.2655C41.4682 88.2305 41.972 87.7584 41.9625 87.137L41.9011 83.0034C41.8926 82.4202 41.3729 81.8729 40.7727 81.9078Z" fill="#494949"/>
<path d="M39.3203 91.9672C39.2282 105.584 39.1351 119.202 39.043 132.819C39.0335 134.253 41.2564 134.218 41.267 132.786C41.3591 119.169 41.4512 105.552 41.5443 91.9344C41.5528 90.5011 39.3299 90.536 39.3203 91.9672Z" fill="#494949"/>
<path d="M59.403 102.059L57.9983 151.546C57.9581 152.98 60.1811 152.943 60.2223 151.514L61.627 102.027C61.6673 100.593 59.4433 100.63 59.403 102.059Z" fill="#494949"/>
<path d="M70.6353 130.493C70.6384 129.912 70.2679 129.314 69.6318 129.282C69.0739 129.253 68.4239 129.664 68.4208 130.284C68.4123 131.88 68.4028 133.475 68.3943 135.071C68.3911 135.652 68.7606 136.25 69.3968 136.282C69.9546 136.311 70.6046 135.9 70.6077 135.28C70.6173 133.683 70.6257 132.088 70.6353 130.493Z" fill="#494949"/>
<path d="M70.4818 140.039C70.2606 150.862 70.0393 161.695 69.8287 172.517C69.8213 172.74 69.8244 172.962 69.817 173.184C69.8033 174.38 68.279 174.435 67.7698 173.607C67.6724 173.459 67.6163 173.281 67.6142 173.069C67.6036 173.037 67.6025 173.016 67.6025 172.984C67.6279 171.82 67.6533 170.654 67.6777 169.49C67.8704 159.599 68.0736 149.708 68.2662 139.828C68.2864 138.389 70.503 138.61 70.4818 140.039Z" fill="#494949"/>
<path d="M79.6795 128.517C79.7484 127.085 77.5243 127.125 77.4555 128.55C76.5103 148.157 76.7865 167.81 78.2854 187.383C78.3945 188.805 80.6185 188.78 80.5095 187.35C79.0116 167.777 78.7343 148.124 79.6795 128.517Z" fill="#494949"/>
<path d="M79.5061 115.564C78.8783 115.6 78.4338 116.071 78.4105 116.693C78.3618 117.987 78.3131 119.282 78.2633 120.577C78.2411 121.16 78.8138 121.705 79.3917 121.672C80.0195 121.636 80.464 121.166 80.4873 120.544C80.536 119.249 80.5847 117.955 80.6345 116.66C80.6556 116.077 80.084 115.53 79.5061 115.564Z" fill="#494949"/>
<path d="M78.8815 194.151C77.2037 195.922 74.7966 197.09 73.8249 199.434C73.3951 200.446 71.6421 199.995 71.731 198.914C72.1185 194.335 72.4953 189.745 72.8828 185.166C72.8912 185.028 72.9103 184.891 72.9187 184.753C72.9632 184.149 73.358 183.635 74.0133 183.626C74.5637 183.617 75.1851 184.128 75.1406 184.72C75.0867 185.346 75.0327 185.982 74.9882 186.607C74.7342 189.501 74.4917 192.384 74.2589 195.288C74.9173 194.696 75.6075 194.124 76.2765 193.543C77.3435 192.638 78.6455 191.254 78.6667 189.781C78.673 189.517 78.6381 189.263 78.5386 189C78.4835 188.821 78.4063 188.632 78.2972 188.453C78.2866 188.442 78.2761 188.421 78.275 188.41C78.058 188.033 78.095 187.672 78.2813 187.394V187.384C78.529 186.978 79.0446 186.726 79.523 186.836C79.7887 186.885 80.0449 187.041 80.2185 187.334C80.2291 187.355 80.2513 187.387 80.2619 187.407C80.3381 187.533 80.4027 187.648 80.4577 187.774V187.785C80.6663 188.247 80.789 188.722 80.8388 189.198C81.0262 190.985 80.1327 192.83 78.8815 194.151Z" fill="#494949"/>
<path d="M120.589 137.987C120.506 138.072 120.422 138.158 120.339 138.254C119.059 139.671 118.417 141.406 117.946 143.244C117.836 143.669 117.736 144.094 117.647 144.529C117.182 146.675 116.812 148.882 115.877 150.791C113.637 155.387 108.438 156.797 104.06 158.556C100.029 160.173 95.8118 162.744 95.1872 167.093C95.1682 167.22 95.1491 167.359 95.1406 167.497C95.0962 168.048 95.1046 168.63 95.1766 169.243C95.4561 171.663 95.979 174.069 94.5711 176.26C93.5253 177.885 91.8475 178.936 90.1993 179.861C88.1521 181.003 86.1991 182.1 84.5192 183.767C82.9546 185.346 81.7426 187.174 80.8407 189.199C80.7486 189.412 80.6565 189.626 80.5644 189.849C80.1759 190.807 79.0496 190.517 78.6686 189.781C78.5384 189.55 78.4812 189.286 78.5405 189C78.5606 188.937 78.5807 188.861 78.6114 188.787C78.6315 188.734 78.6622 188.67 78.6834 188.617C78.7342 188.499 78.7755 188.383 78.8369 188.265C79.0412 187.775 79.2677 187.306 79.5249 186.836C79.5662 186.761 79.6075 186.687 79.6488 186.612C79.8647 186.196 80.1135 185.8 80.3612 185.405C81.1477 184.197 82.0527 183.072 83.0859 182.062C84.9013 180.288 87.0332 179.093 89.2382 177.854C91.17 176.766 93.2046 175.444 93.3273 173.009C93.4533 170.805 92.7028 168.73 92.9674 166.556V166.545C93.0151 166.174 93.0839 165.802 93.194 165.43C93.6174 164.006 94.3192 162.788 95.2147 161.727C97.3054 159.229 100.447 157.616 103.458 156.406C105.91 155.428 108.492 154.628 110.736 153.207C112.876 151.863 114.044 149.941 114.729 147.57C115.122 146.208 115.397 144.786 115.716 143.384C116.214 141.27 116.829 139.196 118.137 137.452C118.385 137.098 118.667 136.766 118.99 136.444C119.125 136.304 119.272 136.218 119.419 136.173C120.388 135.83 121.466 137.116 120.589 137.987Z" fill="#494949"/>
<path d="M118.136 137.451C118.079 139.389 118.023 141.317 117.946 143.244C117.939 143.445 117.931 143.636 117.923 143.837C117.906 144.123 117.814 144.358 117.648 144.529C117.054 145.215 115.654 145.014 115.701 143.87C115.709 143.711 115.717 143.542 115.715 143.383C116.298 128.394 116.362 113.392 115.939 98.3968C115.897 96.9678 118.12 96.935 118.162 98.364C118.535 111.392 118.526 124.435 118.136 137.451Z" fill="#494949"/>
<path d="M95.2307 157.83C95.2286 159.121 95.2159 160.425 95.2138 161.727C95.1979 163.515 95.1926 165.305 95.1873 167.094L95.1883 167.19C95.1894 167.296 95.1704 167.401 95.1397 167.498C94.838 168.613 92.9527 168.536 92.9654 167.223C92.9622 167 92.9696 166.778 92.9665 166.556V166.545C92.976 163.645 92.9866 160.754 93.0077 157.863C93.0183 156.423 95.2413 156.39 95.2307 157.83Z" fill="#494949"/>
<path d="M93.0861 100.332C93.0237 98.9028 90.7997 98.9314 90.8621 100.365C91.4295 113.308 92.7061 139.08 93.2735 152.023C93.336 153.452 95.56 153.423 95.4975 151.99C94.9301 139.047 93.6535 113.275 93.0861 100.332Z" fill="#494949"/>
<path d="M68.2791 40.6467C65.4994 39.4908 63.1653 42.0916 62.5121 44.7719C62.1247 46.3618 62.0273 48.0978 61.9935 49.7343C61.9575 51.4503 62.1014 53.217 62.6582 54.8387C63.4818 57.2405 66.0043 60.8565 68.7671 59.1035C73.4787 56.1121 73.6036 42.8623 68.2791 40.6467Z" fill="#494949"/>
<path d="M89.0836 60.0954C91.4304 60.2171 93.1188 58.5065 93.8767 56.779C95.6826 52.6633 95.7313 48.0057 94.2737 43.8838C93.6883 42.2282 92.8478 40.1333 90.8397 39.3881C88.7449 38.6111 86.9655 40.0275 86.1239 41.5835C84.2228 45.0947 82.0083 59.7302 89.0836 60.0954Z" fill="#494949"/>
<path d="M51.3909 34.938C50.8468 34.8289 50.2974 35.1306 50.1577 35.6832C49.7777 37.1842 49.5395 38.7159 49.4199 40.2603C49.3786 40.7938 49.9386 41.2935 50.4541 41.2638C51.0469 41.23 51.4131 40.7991 51.4576 40.2307C51.4724 40.038 51.4893 39.8464 51.5084 39.6538C51.5169 39.5723 51.5232 39.4887 51.5338 39.4071C51.501 39.6443 51.5391 39.368 51.5423 39.3373C51.5857 38.9816 51.6365 38.627 51.6958 38.2734C51.8133 37.5663 51.9615 36.8656 52.1372 36.1712C52.2674 35.6535 51.9276 35.0459 51.3909 34.938Z" fill="#494949"/>
<path d="M62.1765 13.6686C56.6933 18.2584 52.8285 24.6404 51.2608 31.6141C50.9739 32.8907 52.9502 33.3861 53.2392 32.1021C54.736 25.4449 58.4081 19.4662 63.6384 15.0881C64.643 14.2465 63.1737 12.8344 62.1765 13.6686Z" fill="#494949"/>
<path d="M80.7879 71.9046C80.4777 71.5563 79.8998 71.5341 79.5145 71.7511C79.1652 71.948 78.9206 72.2761 78.7925 72.6455C78.7248 72.7133 78.6528 72.7789 78.6073 72.871C77.8981 74.2842 78.1796 76.1059 79.3642 77.1825C79.7654 77.5477 80.4809 77.6101 80.8609 77.1603C82.146 75.6412 82.1132 73.3865 80.7879 71.9046Z" fill="#494949"/>
</svg>
